<svg xmlns="http://www.w3.org/2000/svg" viewBox="0 0 512 512" role="img" aria-labelledby="title desc">
  <title id="title">a2api icon</title>
  <desc id="desc">A gateway mark showing multiple upstream nodes routed into one API core.</desc>
  <defs>
    <linearGradient id="bg" x1="64" y1="52" x2="448" y2="460" gradientUnits="userSpaceOnUse">
      <stop offset="0" stop-color="#0f172a"/>
      <stop offset="0.52" stop-color="#132f3b"/>
      <stop offset="1" stop-color="#123026"/>
    </linearGradient>
    <linearGradient id="core" x1="142" y1="124" x2="360" y2="388" gradientUnits="userSpaceOnUse">
      <stop offset="0" stop-color="#67e8f9"/>
      <stop offset="0.55" stop-color="#34d399"/>
      <stop offset="1" stop-color="#a3e635"/>
    </linearGradient>
    <filter id="soft-shadow" x="-20%" y="-20%" width="140%" height="140%">
      <feDropShadow dx="0" dy="18" stdDeviation="18" flood-color="#020617" flood-opacity="0.32"/>
    </filter>
  </defs>
  <rect width="512" height="512" rx="104" fill="url(#bg)"/>
  <path d="M112 170h70c37 0 58 20 82 54l19 27c15 22 29 35 55 35h62" fill="none" stroke="#67e8f9" stroke-width="28" stroke-linecap="round"/>
  <path d="M112 342h70c37 0 58-20 82-54l19-27c15-22 29-35 55-35h62" fill="none" stroke="#a3e635" stroke-width="28" stroke-linecap="round"/>
  <path d="M112 256h288" fill="none" stroke="#ffffff" stroke-width="24" stroke-linecap="round" opacity="0.9"/>
  <g filter="url(#soft-shadow)">
    <path d="M256 122 372 189v134l-116 67-116-67V189l116-67Z" fill="#07111f" opacity="0.92"/>
    <path d="M256 146 351 201v110l-95 55-95-55V201l95-55Z" fill="url(#core)"/>
    <path d="M256 180 320 217v78l-64 37-64-37v-78l64-37Z" fill="#07111f" opacity="0.9"/>
    <path d="M256 211 293 232v48l-37 21-37-21v-48l37-21Z" fill="#f8fafc"/>
  </g>
  <circle cx="96" cy="170" r="28" fill="#67e8f9"/>
  <circle cx="96" cy="256" r="28" fill="#f8fafc"/>
  <circle cx="96" cy="342" r="28" fill="#a3e635"/>
  <circle cx="416" cy="256" r="34" fill="#f8fafc"/>
  <path d="M409 242h18l-14 16h18l-28 28 9-20h-17l14-24Z" fill="#0f172a"/>
</svg>
